<svg width="8" height="8" viewBox="0 0 8 8" fill="none" xmlns="http://www.w3.org/2000/svg">
<g clip-path="url(#clip0_2311_163)">
<path d="M3.97514 2.14372C3.04948 2.14372 2.30284 2.88651 2.30284 3.80741C2.30284 4.7283 3.04948 5.47109 3.97514 5.47109C4.9008 5.47109 5.64745 4.7283 5.64745 3.80741C5.64745 2.88651 4.9008 2.14372 3.97514 2.14372ZM3.97514 4.88902C3.37696 4.88902 2.88793 4.40396 2.88793 3.80741C2.88793 3.21085 3.3755 2.72579 3.97514 2.72579C4.57479 2.72579 5.06236 3.21085 5.06236 3.80741C5.06236 4.40396 4.57333 4.88902 3.97514 4.88902V4.88902ZM6.10591 2.07567C6.10591 2.29141 5.93126 2.46372 5.71585 2.46372C5.49899 2.46372 5.32579 2.28996 5.32579 2.07567C5.32579 1.86137 5.50045 1.68762 5.71585 1.68762C5.93126 1.68762 6.10591 1.86137 6.10591 2.07567ZM7.2135 2.46951C7.18876 1.9497 7.06942 1.48925 6.68663 1.10989C6.30531 0.730527 5.84248 0.611795 5.31997 0.585732C4.78146 0.555326 3.16737 0.555326 2.62886 0.585732C2.10781 0.610347 1.64498 0.729079 1.2622 1.10844C0.879415 1.4878 0.761524 1.94825 0.735326 2.46806C0.704761 3.0038 0.704761 4.60957 0.735326 5.14531C0.760068 5.66512 0.879415 6.12556 1.2622 6.50493C1.64498 6.88429 2.10635 7.00302 2.62886 7.02908C3.16737 7.05949 4.78146 7.05949 5.31997 7.02908C5.84248 7.00447 6.30531 6.88573 6.68663 6.50493C7.06796 6.12556 7.18731 5.66512 7.2135 5.14531C7.24407 4.60957 7.24407 3.00525 7.2135 2.46951V2.46951ZM6.5178 5.72014C6.40428 6.00394 6.18451 6.22258 5.89778 6.33696C5.46843 6.50637 4.44962 6.46728 3.97514 6.46728C3.50067 6.46728 2.4804 6.50493 2.0525 6.33696C1.76723 6.22402 1.54746 6.00539 1.43248 5.72014C1.2622 5.293 1.30149 4.27944 1.30149 3.80741C1.30149 3.33538 1.26365 2.32037 1.43248 1.89467C1.54601 1.61088 1.76578 1.39224 2.0525 1.27785C2.48186 1.10844 3.50067 1.14753 3.97514 1.14753C4.44962 1.14753 5.46988 1.10989 5.89778 1.27785C6.18305 1.39079 6.40282 1.60943 6.5178 1.89467C6.68809 2.32182 6.64879 3.33538 6.64879 3.80741C6.64879 4.27944 6.68809 5.29444 6.5178 5.72014Z" fill="white"/>
</g>
<defs>
<clipPath id="clip0_2311_163">
<rect width="6.58976" height="7.41348" fill="white" transform="translate(0.730957 0.101929)"/>
</clipPath>
</defs>
</svg>
