<svg width="8" height="7" viewBox="0 0 8 7" fill="none" xmlns="http://www.w3.org/2000/svg">
<g clip-path="url(#clip0_2311_158)">
<path d="M2.42523 6.69157V2.52335H1.0273V6.69157H2.42523ZM1.72645 1.95391C2.21393 1.95391 2.51737 1.63384 2.51737 1.23386C2.50828 0.824859 2.21395 0.513672 1.7357 0.513672C1.25752 0.513672 0.944824 0.824865 0.944824 1.23386C0.944824 1.63386 1.24818 1.95391 1.71732 1.95391H1.7264H1.72645ZM3.19898 6.69157H4.59692V4.36384C4.59692 4.23926 4.606 4.11481 4.64291 4.02576C4.74397 3.77686 4.97399 3.51906 5.36016 3.51906C5.86601 3.51906 6.06838 3.9013 6.06838 4.46164V6.69154H7.46622V4.30153C7.46622 3.02121 6.77656 2.4255 5.8568 2.4255C5.10268 2.4255 4.77156 2.84326 4.58762 3.12779H4.59695V2.52327H3.19902C3.21736 2.91439 3.19902 6.69149 3.19902 6.69149L3.19898 6.69157Z" fill="white"/>
</g>
<defs>
<clipPath id="clip0_2311_158">
<rect width="6.58976" height="6.1779" fill="white" transform="translate(0.961914 0.513916)"/>
</clipPath>
</defs>
</svg>
