<svg width="9" height="7" viewBox="0 0 9 7" fill="none" xmlns="http://www.w3.org/2000/svg">
<g clip-path="url(#clip0_2311_153)">
<path d="M8.10302 1.62812C7.82833 1.74529 7.53698 1.82219 7.23864 1.85628C7.54939 1.67696 7.78799 1.39299 7.90035 1.05464C7.60494 1.22342 7.28174 1.34234 6.9447 1.40626C6.67017 1.12466 6.27907 0.948669 5.84619 0.948669C5.01505 0.948669 4.3412 1.59744 4.3412 2.39763C4.3412 2.51121 4.35452 2.62178 4.38017 2.72786C3.12942 2.66742 2.02051 2.09056 1.27822 1.21391C1.14871 1.42791 1.07449 1.67685 1.07449 1.94236C1.07449 2.44508 1.3402 2.88857 1.74399 3.14843C1.505 3.14122 1.27127 3.07907 1.06231 2.96717C1.06223 2.97324 1.06223 2.97931 1.06223 2.9854C1.06223 3.68745 1.58098 4.27311 2.26942 4.40622C2.04781 4.46425 1.81535 4.47274 1.58981 4.43105C1.7813 5.00672 2.3371 5.42562 2.99563 5.43735C2.48057 5.82596 1.83165 6.05762 1.12658 6.05762C1.00509 6.05762 0.885318 6.05075 0.767578 6.03737C1.43358 6.4485 2.22464 6.68838 3.07452 6.68838C5.8427 6.68838 7.35641 4.48043 7.35641 2.56567C7.35641 2.50282 7.35497 2.44033 7.35205 2.3782C7.64668 2.17313 7.90098 1.91913 8.10302 1.62812" fill="white"/>
</g>
<defs>
<clipPath id="clip0_2311_153">
<rect width="7.41348" height="5.76604" fill="white" transform="translate(0.780762 0.925903)"/>
</clipPath>
</defs>
</svg>
