<svg width="14" height="14" viewBox="0 0 14 14" fill="none" xmlns="http://www.w3.org/2000/svg">
<path d="M7.11417 4.66635L7.43817 5.42418C7.46013 5.49007 7.52054 5.52851 7.58094 5.534L8.40466 5.61089C8.58039 5.62736 8.64629 5.84153 8.51998 5.95685L7.89945 6.5005C7.85003 6.54443 7.82806 6.61033 7.84453 6.67074L8.02575 7.47798C8.06419 7.64822 7.88297 7.78001 7.72921 7.69215L7.02081 7.26931C6.9659 7.23636 6.89451 7.23636 6.8396 7.26931L6.1312 7.69215C5.98293 7.78001 5.79622 7.64822 5.83466 7.47798L6.01588 6.67074C6.03235 6.61033 6.01038 6.54443 5.96096 6.5005L5.34043 5.95685C5.20863 5.84153 5.28002 5.62736 5.45575 5.61089L6.27947 5.534C6.34536 5.52851 6.40028 5.49007 6.42774 5.42967L6.75173 4.67185C6.81763 4.5071 7.04278 4.5071 7.11417 4.66635Z" stroke="#F0C932" stroke-width="0.549146" stroke-miterlimit="10" stroke-linecap="round" stroke-linejoin="round"/>
<path d="M10.666 6.27242C10.6802 4.21008 9.01981 2.52672 6.95747 2.51252C4.89513 2.49833 3.21177 4.15868 3.19757 6.22102C3.18338 8.28336 4.84373 9.96672 6.90607 9.98091C8.96841 9.99511 10.6518 8.33476 10.666 6.27242Z" stroke="#F0C932" stroke-width="0.549146" stroke-miterlimit="10" stroke-linecap="round" stroke-linejoin="round"/>
<path d="M6.42238 9.94364L5.49433 12.2775L4.31915 10.9321L2.54541 11.0969L3.72058 8.15343" stroke="#F0C932" stroke-width="0.549146" stroke-miterlimit="10" stroke-linecap="round" stroke-linejoin="round"/>
<path d="M7.43262 9.94366L8.36617 12.2775L9.53585 10.9321L11.3151 11.0969L10.1344 8.15344" stroke="#F0C932" stroke-width="0.549146" stroke-miterlimit="10" stroke-linecap="round" stroke-linejoin="round"/>
</svg>
