<svg width="2" height="2" viewBox="0 0 10 9" fill="none" xmlns="http://www.w3.org/2000/svg">
<path d="M4.8241 0.422652C4.88575 0.232927 5.15416 0.232927 5.2158 0.422653L6.08334 3.09265C6.11091 3.1775 6.18997 3.23494 6.27919 3.23494H9.08659C9.28608 3.23494 9.36902 3.49022 9.20763 3.60747L6.9364 5.25762C6.86422 5.31006 6.83402 5.40301 6.86159 5.48786L7.72912 8.15785C7.79077 8.34758 7.57362 8.50535 7.41223 8.38809L5.141 6.73794C5.06882 6.6855 4.97109 6.6855 4.89891 6.73794L2.62768 8.38809C2.46629 8.50535 2.24914 8.34758 2.31078 8.15785L3.17832 5.48786C3.20589 5.40301 3.17568 5.31006 3.10351 5.25762L0.832275 3.60747C0.670885 3.49022 0.753829 3.23494 0.953318 3.23494H3.76072C3.84993 3.23494 3.929 3.1775 3.95657 3.09265L4.8241 0.422652Z" fill="#F1CC4A"/>
</svg>
